Coordinates
version=1
nRows=38
nColumns=38
inDegrees=no

Units are S.I. units (second, meters, Newtons, ...)
If the header above contains a line with 'inDegrees', this indicates whether rotational values are in degrees (yes) or radians (no).

endheader
time	pelvis_tilt	pelvis_list	pelvis_rotation	pelvis_tx	pelvis_ty	pelvis_tz	hip_flexion_r	hip_adduction_r	hip_rotation_r	knee_angle_r	ankle_angle_r	subtalar_angle_r	mtp_angle_r	hip_flexion_l	hip_adduction_l	hip_rotation_l	knee_angle_l	ankle_angle_l	subtalar_angle_l	mtp_angle_l	lumbar_extension	lumbar_bending	lumbar_rotation	arm_flex_r	arm_add_r	arm_rot_r	elbow_flex_r	pro_sup_r	wrist_flex_r	wrist_dev_r	arm_flex_l	arm_add_l	arm_rot_l	elbow_flex_l	pro_sup_l	wrist_flex_l	wrist_dev_l
52.65	0.216254	1.4241	1.42393	0.67355	0.208286	1.05213	0.231998	-0.043507	0.00770085	0.239022	-0.283315	0	0	0.135904	-0.0817908	-0.120394	0.213749	-0.295754	0	0	-0.251265	0.0677584	-0.100878	0.500307	-0.491698	1.29788	0.569101	0.529754	0	0	0.0561182	-0.287339	0.114243	0.526738	1.20021	0	0
52.66	0.216112	1.42552	1.42299	0.673465	0.209246	1.0524	0.228356	-0.0437197	0.00866842	0.236566	-0.284095	0	0	0.130911	-0.0813632	-0.123265	0.20919	-0.297706	0	0	-0.246645	0.0668659	-0.100547	0.499145	-0.491059	1.30704	0.566138	0.531611	0	0	0.053148	-0.285963	0.111015	0.525395	1.20325	0	0
52.67	0.219117	1.42755	1.42012	0.67337	0.20999	1.05272	0.223964	-0.0436137	0.00892946	0.234037	-0.284695	0	0	0.126301	-0.0813237	-0.124128	0.20598	-0.299296	0	0	-0.243098	0.0664954	-0.10101	0.498176	-0.490164	1.31503	0.563172	0.531863	0	0	0.0508921	-0.28505	0.108422	0.524387	1.2063	0	0
52.68	0.224515	1.43001	1.41579	0.673264	0.210498	1.05306	0.219351	-0.0432903	0.00870346	0.231875	-0.285096	0	0	0.122164	-0.0815427	-0.123258	0.203877	-0.300353	0	0	-0.240682	0.0665813	-0.102192	0.497593	-0.489443	1.32137	0.560897	0.529529	0	0	0.0491337	-0.284617	0.106369	0.524058	1.20918	0	0
52.69	0.225897	1.43131	1.41369	0.673217	0.211179	1.05323	0.216597	-0.0431768	0.0101122	0.230559	-0.285257	0	0	0.118652	-0.0815175	-0.125347	0.201393	-0.301214	0	0	-0.237309	0.066018	-0.101672	0.49617	-0.489615	1.32649	0.559682	0.526275	0	0	0.0468452	-0.283685	0.104096	0.523942	1.21218	0	0
52.7	0.227458	1.43246	1.41155	0.673183	0.211754	1.05333	0.214776	-0.0430658	0.0114212	0.230713	-0.284934	0	0	0.115797	-0.0816134	-0.127219	0.199665	-0.301822	0	0	-0.234229	0.0655301	-0.100993	0.4946	-0.490269	1.33087	0.559393	0.522823	0	0	0.0449181	-0.282815	0.102028	0.524071	1.21534	0	0
52.71	0.231923	1.43434	1.40706	0.673122	0.212116	1.05347	0.212671	-0.0427361	0.0122997	0.231861	-0.281324	0	0	0.112716	-0.0819561	-0.128159	0.198476	-0.301867	0	0	-0.232416	0.0657114	-0.102021	0.497381	-0.490745	1.34668	0.5597	0.508687	0	0	0.042275	-0.279993	0.0895846	0.524351	1.22936	0	0
52.72	0.234675	1.43531	1.40451	0.673068	0.212318	1.05352	0.211397	-0.0424239	0.0134553	0.232004	-0.280252	0	0	0.111399	-0.0821784	-0.128479	0.198363	-0.301393	0	0	-0.230633	0.0653935	-0.101491	0.494863	-0.491437	1.34445	0.560025	0.510027	0	0	0.041337	-0.279768	0.0890822	0.525561	1.22985	0	0
52.73	0.237049	1.43618	1.40219	0.673034	0.212433	1.05355	0.210743	-0.0421434	0.0146763	0.233002	-0.27898	0	0	0.110468	-0.0823329	-0.128644	0.198595	-0.300736	0	0	-0.229277	0.0649925	-0.100839	0.492698	-0.492143	1.34194	0.560452	0.511422	0	0	0.0405687	-0.279548	0.0885116	0.526898	1.23006	0	0
52.74	0.239254	1.43728	1.39991	0.673021	0.212488	1.05358	0.210333	-0.0419396	0.0156414	0.234827	-0.277619	0	0	0.109454	-0.0824215	-0.128367	0.199133	-0.29981	0	0	-0.228451	0.064533	-0.100071	0.49092	-0.493096	1.33954	0.561348	0.512785	0	0	0.0399977	-0.27928	0.0878607	0.528077	1.2299	0	0
52.75	0.241082	1.4385	1.398	0.673014	0.212483	1.05362	0.20989	-0.0417895	0.0165192	0.236708	-0.276302	0	0	0.108577	-0.08244	-0.12756	0.200201	-0.298726	0	0	-0.228072	0.0640339	-0.099354	0.489244	-0.494044	1.33663	0.56248	0.513217	0	0	0.0395988	-0.278984	0.0871477	0.529062	1.22951	0	0
52.76	0.24221	1.43936	1.39704	0.672989	0.212358	1.05361	0.210024	-0.0417127	0.0172237	0.238774	-0.275096	0	0	0.108547	-0.0824738	-0.12695	0.201833	-0.297771	0	0	-0.227747	0.0635854	-0.0989666	0.487689	-0.494828	1.33311	0.563563	0.512625	0	0	0.0393713	-0.278738	0.0865199	0.529889	1.22906	0	0
52.77	0.242629	1.43985	1.39696	0.672939	0.212117	1.05357	0.210735	-0.0416988	0.0178718	0.24089	-0.274059	0	0	0.109327	-0.0824622	-0.126372	0.203793	-0.296979	0	0	-0.227487	0.0631962	-0.0988764	0.486369	-0.495406	1.32932	0.564482	0.511376	0	0	0.0393672	-0.278525	0.0859918	0.530372	1.22852	0	0
52.78	0.244551	1.44122	1.3955	0.672873	0.211799	1.05362	0.210196	-0.0416605	0.0185287	0.242143	-0.275848	0	0	0.109014	-0.0823975	-0.125475	0.205073	-0.297568	0	0	-0.228073	0.0634954	-0.101076	0.490466	-0.495129	1.34077	0.564867	0.501065	0	0	0.0381434	-0.278587	0.0849678	0.530856	1.22646	0	0
52.79	0.244029	1.44165	1.3965	0.67282	0.211468	1.05357	0.211059	-0.0418395	0.0187799	0.244293	-0.274618	0	0	0.110126	-0.0822679	-0.124813	0.207222	-0.296723	0	0	-0.228335	0.0631425	-0.101371	0.489756	-0.495654	1.33788	0.566004	0.499353	0	0	0.0383689	-0.278311	0.084295	0.530695	1.22681	0	0
52.8	0.243331	1.44211	1.39769	0.672778	0.211102	1.05353	0.211844	-0.042075	0.0187759	0.246138	-0.273789	0	0	0.111148	-0.0821358	-0.124264	0.209081	-0.296144	0	0	-0.228842	0.0628411	-0.101877	0.489541	-0.496134	1.3362	0.567204	0.498489	0	0	0.038658	-0.278161	0.0841554	0.530244	1.22704	0	0
52.81	0.243234	1.44264	1.39849	0.672724	0.210677	1.0535	0.21254	-0.0423042	0.0184062	0.248035	-0.272859	0	0	0.112251	-0.0820633	-0.123588	0.211159	-0.295509	0	0	-0.229783	0.0626373	-0.102557	0.489469	-0.496541	1.3346	0.568437	0.497645	0	0	0.0391898	-0.278078	0.0843581	0.529631	1.22739	0	0
52.82	0.243954	1.44321	1.39862	0.672655	0.210212	1.0535	0.213164	-0.0425254	0.0174451	0.249855	-0.27197	0	0	0.113312	-0.0820956	-0.122958	0.21317	-0.294922	0	0	-0.23111	0.0625881	-0.103433	0.489697	-0.496867	1.33345	0.569638	0.497134	0	0	0.0398577	-0.278053	0.0848995	0.528819	1.22777	0	0
52.83	0.244402	1.44365	1.39889	0.672602	0.209722	1.05349	0.213951	-0.0427728	0.0163063	0.251516	-0.271192	0	0	0.114504	-0.082188	-0.12289	0.215093	-0.294408	0	0	-0.232622	0.0625738	-0.104326	0.490298	-0.49715	1.33289	0.570745	0.497135	0	0	0.0405403	-0.278054	0.0856484	0.527915	1.22797	0	0
52.84	0.243836	1.44357	1.40013	0.67256	0.209164	1.05344	0.21552	-0.043056	0.0152706	0.253477	-0.270508	0	0	0.116375	-0.0822284	-0.123094	0.217147	-0.293938	0	0	-0.234046	0.0624768	-0.105197	0.49083	-0.497288	1.33223	0.571836	0.496868	0	0	0.0412267	-0.278185	0.0866124	0.527224	1.22814	0	0
52.85	0.243268	1.44289	1.40144	0.672502	0.208523	1.05335	0.217849	-0.0432836	0.0143962	0.25554	-0.269919	0	0	0.119031	-0.082336	-0.123175	0.219308	-0.293498	0	0	-0.235245	0.0624863	-0.106091	0.491198	-0.497277	1.33131	0.572843	0.495923	0	0	0.0420448	-0.278317	0.0877865	0.526522	1.22836	0	0
52.86	0.241952	1.44221	1.40308	0.672449	0.207906	1.05327	0.220326	-0.0435846	0.0133858	0.257748	-0.269372	0	0	0.12131	-0.0822453	-0.122922	0.220901	-0.293108	0	0	-0.236563	0.0623415	-0.106628	0.491648	-0.497277	1.33085	0.573671	0.495099	0	0	0.0428838	-0.278341	0.0891224	0.525521	1.22859	0	0
52.87	0.240408	1.44142	1.40479	0.67242	0.207251	1.05317	0.222949	-0.0438592	0.0124365	0.259852	-0.268928	0	0	0.123612	-0.0821418	-0.122842	0.22216	-0.292805	0	0	-0.237953	0.062201	-0.107031	0.492394	-0.497426	1.33111	0.57458	0.494665	0	0	0.0437667	-0.278324	0.0904067	0.524398	1.22856	0	0
52.88	0.238755	1.44031	1.40655	0.672412	0.206542	1.05302	0.226025	-0.0440646	0.0115325	0.261981	-0.268531	0	0	0.126402	-0.0821344	-0.12301	0.223625	-0.292554	0	0	-0.239201	0.0621737	-0.107385	0.493376	-0.497621	1.33185	0.575443	0.49431	0	0	0.044687	-0.278282	0.0917378	0.523243	1.22833	0	0
52.89	0.228724	1.43529	1.41658	0.672501	0.205931	1.05254	0.2342	-0.0446336	0.0110991	0.266096	-0.266327	0	0	0.134031	-0.081751	-0.123063	0.226296	-0.292	0	0	-0.237229	0.059083	-0.0963962	0.465192	-0.500285	1.25281	0.576909	0.568543	0	0	0.055005	-0.283601	0.12876	0.519315	1.20204	0	0
52.9	0.23374	1.43702	1.41155	0.672491	0.204976	1.05255	0.234756	-0.0443449	0.010004	0.269158	-0.265301	0	0	0.134243	-0.0824819	-0.124588	0.228768	-0.290499	0	0	-0.239576	0.0628331	-0.109148	0.501221	-0.498085	1.35466	0.577158	0.473783	0	0	0.0464354	-0.280203	0.104152	0.519434	1.21629	0	0
52.91	0.230997	1.43491	1.41419	0.672561	0.204129	1.05226	0.238882	-0.0443313	0.0100273	0.270572	-0.265176	0	0	0.138653	-0.0827187	-0.125161	0.231098	-0.289917	0	0	-0.23993	0.06293	-0.109461	0.503172	-0.497901	1.35945	0.577277	0.47054	0	0	0.047486	-0.280506	0.106949	0.517879	1.21477	0	0
52.92	0.226463	1.43214	1.41854	0.672652	0.203228	1.05185	0.244167	-0.0445213	0.0104084	0.2729	-0.264368	0	0	0.144028	-0.0828343	-0.125638	0.23386	-0.28909	0	0	-0.239634	0.0628022	-0.109736	0.505121	-0.497385	1.3651	0.576893	0.467673	0	0	0.0484605	-0.280989	0.110099	0.516463	1.21297	0	0
52.93	0.222076	1.42922	1.42292	0.672746	0.202293	1.05142	0.250046	-0.044715	0.0106515	0.27634	-0.262846	0	0	0.149894	-0.0829996	-0.125799	0.237229	-0.287893	0	0	-0.239372	0.062725	-0.109975	0.506996	-0.497103	1.37087	0.576857	0.464747	0	0	0.049621	-0.281654	0.113825	0.515131	1.2107	0	0
52.94	0.217839	1.42679	1.42698	0.672848	0.201346	1.05106	0.255654	-0.0449632	0.0107298	0.280199	-0.261419	0	0	0.155154	-0.0830023	-0.125289	0.240476	-0.28678	0	0	-0.240087	0.0625565	-0.109849	0.508761	-0.497185	1.3757	0.57734	0.462606	0	0	0.0510769	-0.282293	0.117278	0.514054	1.20874	0	0
52.95	0.213689	1.42393	1.431	0.672963	0.200312	1.05063	0.262139	-0.0451672	0.0107448	0.284564	-0.259795	0	0	0.16126	-0.0831782	-0.125104	0.24423	-0.285582	0	0	-0.240785	0.0624394	-0.109679	0.510548	-0.497374	1.37964	0.577902	0.459583	0	0	0.0526614	-0.283083	0.120894	0.513298	1.20636	0	0
52.96	0.208645	1.42022	1.43592	0.673091	0.199232	1.05009	0.270035	-0.0454616	0.0108462	0.289891	-0.257656	0	0	0.168663	-0.0834474	-0.125242	0.248627	-0.284144	0	0	-0.24092	0.0621291	-0.109568	0.512132	-0.497133	1.38297	0.577799	0.455691	0	0	0.0539811	-0.284083	0.124424	0.513194	1.20311	0	0
52.97	0.202323	1.41665	1.44189	0.673229	0.198151	1.04953	0.278087	-0.0460971	0.0110784	0.295683	-0.255517	0	0	0.17592	-0.0833694	-0.124768	0.253027	-0.282406	0	0	-0.241362	0.0614645	-0.109344	0.513717	-0.496626	1.38614	0.577289	0.452071	0	0	0.0552049	-0.285114	0.127536	0.513425	1.19964	0	0
52.98	0.196948	1.41325	1.44698	0.67341	0.197008	1.04898	0.286315	-0.0466036	0.0113721	0.30204	-0.253764	0	0	0.183666	-0.0834532	-0.124139	0.258682	-0.280511	0	0	-0.242327	0.0608977	-0.109054	0.515587	-0.496345	1.3894	0.577162	0.449084	0	0	0.0566905	-0.286209	0.130352	0.513812	1.19629	0	0
52.99	0.192604	1.40957	1.45124	0.673594	0.195764	1.04838	0.294957	-0.0469527	0.0114354	0.308339	-0.252213	0	0	0.191942	-0.0838114	-0.123275	0.264507	-0.278571	0	0	-0.243516	0.0605759	-0.108942	0.517871	-0.496147	1.39274	0.57719	0.44579	0	0	0.0583779	-0.287459	0.133332	0.514362	1.19302	0	0
53	0.18979	1.40579	1.45455	0.67375	0.194357	1.04777	0.303942	-0.0472317	0.0106627	0.314755	-0.250725	0	0	0.200914	-0.0843761	-0.121464	0.270961	-0.276612	0	0	-0.245123	0.0605805	-0.109253	0.520362	-0.495632	1.39568	0.576966	0.441555	0	0	0.0604523	-0.288909	0.136385	0.515179	1.1896	0	0
53.01	0.188362	1.40213	1.45746	0.673856	0.192668	1.04716	0.313337	-0.0476082	0.00900008	0.321915	-0.249142	0	0	0.210825	-0.0848667	-0.117505	0.27852	-0.274692	0	0	-0.247427	0.0610335	-0.110134	0.523513	-0.495188	1.39861	0.576827	0.437403	0	0	0.0634774	-0.290475	0.139495	0.515941	1.18607	0	0
53.02	0.184613	1.39814	1.46177	0.674005	0.191031	1.04646	0.323749	-0.0482185	0.00843461	0.330234	-0.247432	0	0	0.220708	-0.0850375	-0.114598	0.285583	-0.273112	0	0	-0.249663	0.0610894	-0.110274	0.526384	-0.495009	1.40061	0.577	0.433062	0	0	0.0665482	-0.29181	0.142303	0.51651	1.1832	0	0
